NDIME= 2
NELEM= 0
NPOIN= 0
NMARK= 6
MARKER_TAG= Airfoil1
MARKER_ELEMS= 66
3 -1 -1 
3 -1 -1 
3 -1 -1 
3 -1 -1 
3 -1 -1 
3 -1 -1 
3 -1 -1 
3 -1 -1 
3 -1 -1 
3 -1 -1 
3 -1 -1 
3 -1 -1 
3 -1 -1 
3 -1 -1 
3 -1 -1 
3 -1 -1 
3 -1 -1 
3 -1 -1 
3 -1 -1 
3 -1 -1 
3 -1 -1 
3 -1 -1 
3 -1 -1 
3 -1 -1 
3 -1 -1 
3 -1 -1 
3 -1 -1 
3 -1 -1 
3 -1 -1 
3 -1 -1 
3 -1 -1 
3 -1 -1 
3 -1 -1 
3 -1 -1 
3 -1 -1 
3 -1 -1 
3 -1 -1 
3 -1 -1 
3 -1 -1 
3 -1 -1 
3 -1 -1 
3 -1 -1 
3 -1 -1 
3 -1 -1 
3 -1 -1 
3 -1 -1 
3 -1 -1 
3 -1 -1 
3 -1 -1 
3 -1 -1 
3 -1 -1 
3 -1 -1 
3 -1 -1 
3 -1 -1 
3 -1 -1 
3 -1 -1 
3 -1 -1 
3 -1 -1 
3 -1 -1 
3 -1 -1 
3 -1 -1 
3 -1 -1 
3 -1 -1 
3 -1 -1 
3 -1 -1 
3 -1 -1 
MARKER_TAG= Airfoil2
MARKER_ELEMS= 27
3 -1 -1 
3 -1 -1 
3 -1 -1 
3 -1 -1 
3 -1 -1 
3 -1 -1 
3 -1 -1 
3 -1 -1 
3 -1 -1 
3 -1 -1 
3 -1 -1 
3 -1 -1 
3 -1 -1 
3 -1 -1 
3 -1 -1 
3 -1 -1 
3 -1 -1 
3 -1 -1 
3 -1 -1 
3 -1 -1 
3 -1 -1 
3 -1 -1 
3 -1 -1 
3 -1 -1 
3 -1 -1 
3 -1 -1 
3 -1 -1 
MARKER_TAG= inlet
MARKER_ELEMS= 17
3 -1 -1 
3 -1 -1 
3 -1 -1 
3 -1 -1 
3 -1 -1 
3 -1 -1 
3 -1 -1 
3 -1 -1 
3 -1 -1 
3 -1 -1 
3 -1 -1 
3 -1 -1 
3 -1 -1 
3 -1 -1 
3 -1 -1 
3 -1 -1 
3 -1 -1 
MARKER_TAG= outlet
MARKER_ELEMS= 17
3 -1 -1 
3 -1 -1 
3 -1 -1 
3 -1 -1 
3 -1 -1 
3 -1 -1 
3 -1 -1 
3 -1 -1 
3 -1 -1 
3 -1 -1 
3 -1 -1 
3 -1 -1 
3 -1 -1 
3 -1 -1 
3 -1 -1 
3 -1 -1 
3 -1 -1 
MARKER_TAG= bottom
MARKER_ELEMS= 328
3 -1 -1 
3 -1 -1 
3 -1 -1 
3 -1 -1 
3 -1 -1 
3 -1 -1 
3 -1 -1 
3 -1 -1 
3 -1 -1 
3 -1 -1 
3 -1 -1 
3 -1 -1 
3 -1 -1 
3 -1 -1 
3 -1 -1 
3 -1 -1 
3 -1 -1 
3 -1 -1 
3 -1 -1 
3 -1 -1 
3 -1 -1 
3 -1 -1 
3 -1 -1 
3 -1 -1 
3 -1 -1 
3 -1 -1 
3 -1 -1 
3 -1 -1 
3 -1 -1 
3 -1 -1 
3 -1 -1 
3 -1 -1 
3 -1 -1 
3 -1 -1 
3 -1 -1 
3 -1 -1 
3 -1 -1 
3 -1 -1 
3 -1 -1 
3 -1 -1 
3 -1 -1 
3 -1 -1 
3 -1 -1 
3 -1 -1 
3 -1 -1 
3 -1 -1 
3 -1 -1 
3 -1 -1 
3 -1 -1 
3 -1 -1 
3 -1 -1 
3 -1 -1 
3 -1 -1 
3 -1 -1 
3 -1 -1 
3 -1 -1 
3 -1 -1 
3 -1 -1 
3 -1 -1 
3 -1 -1 
3 -1 -1 
3 -1 -1 
3 -1 -1 
3 -1 -1 
3 -1 -1 
3 -1 -1 
3 -1 -1 
3 -1 -1 
3 -1 -1 
3 -1 -1 
3 -1 -1 
3 -1 -1 
3 -1 -1 
3 -1 -1 
3 -1 -1 
3 -1 -1 
3 -1 -1 
3 -1 -1 
3 -1 -1 
3 -1 -1 
3 -1 -1 
3 -1 -1 
3 -1 -1 
3 -1 -1 
3 -1 -1 
3 -1 -1 
3 -1 -1 
3 -1 -1 
3 -1 -1 
3 -1 -1 
3 -1 -1 
3 -1 -1 
3 -1 -1 
3 -1 -1 
3 -1 -1 
3 -1 -1 
3 -1 -1 
3 -1 -1 
3 -1 -1 
3 -1 -1 
3 -1 -1 
3 -1 -1 
3 -1 -1 
3 -1 -1 
3 -1 -1 
3 -1 -1 
3 -1 -1 
3 -1 -1 
3 -1 -1 
3 -1 -1 
3 -1 -1 
3 -1 -1 
3 -1 -1 
3 -1 -1 
3 -1 -1 
3 -1 -1 
3 -1 -1 
3 -1 -1 
3 -1 -1 
3 -1 -1 
3 -1 -1 
3 -1 -1 
3 -1 -1 
3 -1 -1 
3 -1 -1 
3 -1 -1 
3 -1 -1 
3 -1 -1 
3 -1 -1 
3 -1 -1 
3 -1 -1 
3 -1 -1 
3 -1 -1 
3 -1 -1 
3 -1 -1 
3 -1 -1 
3 -1 -1 
3 -1 -1 
3 -1 -1 
3 -1 -1 
3 -1 -1 
3 -1 -1 
3 -1 -1 
3 -1 -1 
3 -1 -1 
3 -1 -1 
3 -1 -1 
3 -1 -1 
3 -1 -1 
3 -1 -1 
3 -1 -1 
3 -1 -1 
3 -1 -1 
3 -1 -1 
3 -1 -1 
3 -1 -1 
3 -1 -1 
3 -1 -1 
3 -1 -1 
3 -1 -1 
3 -1 -1 
3 -1 -1 
3 -1 -1 
3 -1 -1 
3 -1 -1 
3 -1 -1 
3 -1 -1 
3 -1 -1 
3 -1 -1 
3 -1 -1 
3 -1 -1 
3 -1 -1 
3 -1 -1 
3 -1 -1 
3 -1 -1 
3 -1 -1 
3 -1 -1 
3 -1 -1 
3 -1 -1 
3 -1 -1 
3 -1 -1 
3 -1 -1 
3 -1 -1 
3 -1 -1 
3 -1 -1 
3 -1 -1 
3 -1 -1 
3 -1 -1 
3 -1 -1 
3 -1 -1 
3 -1 -1 
3 -1 -1 
3 -1 -1 
3 -1 -1 
3 -1 -1 
3 -1 -1 
3 -1 -1 
3 -1 -1 
3 -1 -1 
3 -1 -1 
3 -1 -1 
3 -1 -1 
3 -1 -1 
3 -1 -1 
3 -1 -1 
3 -1 -1 
3 -1 -1 
3 -1 -1 
3 -1 -1 
3 -1 -1 
3 -1 -1 
3 -1 -1 
3 -1 -1 
3 -1 -1 
3 -1 -1 
3 -1 -1 
3 -1 -1 
3 -1 -1 
3 -1 -1 
3 -1 -1 
3 -1 -1 
3 -1 -1 
3 -1 -1 
3 -1 -1 
3 -1 -1 
3 -1 -1 
3 -1 -1 
3 -1 -1 
3 -1 -1 
3 -1 -1 
3 -1 -1 
3 -1 -1 
3 -1 -1 
3 -1 -1 
3 -1 -1 
3 -1 -1 
3 -1 -1 
3 -1 -1 
3 -1 -1 
3 -1 -1 
3 -1 -1 
3 -1 -1 
3 -1 -1 
3 -1 -1 
3 -1 -1 
3 -1 -1 
3 -1 -1 
3 -1 -1 
3 -1 -1 
3 -1 -1 
3 -1 -1 
3 -1 -1 
3 -1 -1 
3 -1 -1 
3 -1 -1 
3 -1 -1 
3 -1 -1 
3 -1 -1 
3 -1 -1 
3 -1 -1 
3 -1 -1 
3 -1 -1 
3 -1 -1 
3 -1 -1 
3 -1 -1 
3 -1 -1 
3 -1 -1 
3 -1 -1 
3 -1 -1 
3 -1 -1 
3 -1 -1 
3 -1 -1 
3 -1 -1 
3 -1 -1 
3 -1 -1 
3 -1 -1 
3 -1 -1 
3 -1 -1 
3 -1 -1 
3 -1 -1 
3 -1 -1 
3 -1 -1 
3 -1 -1 
3 -1 -1 
3 -1 -1 
3 -1 -1 
3 -1 -1 
3 -1 -1 
3 -1 -1 
3 -1 -1 
3 -1 -1 
3 -1 -1 
3 -1 -1 
3 -1 -1 
3 -1 -1 
3 -1 -1 
3 -1 -1 
3 -1 -1 
3 -1 -1 
3 -1 -1 
3 -1 -1 
3 -1 -1 
3 -1 -1 
3 -1 -1 
3 -1 -1 
3 -1 -1 
3 -1 -1 
3 -1 -1 
3 -1 -1 
3 -1 -1 
3 -1 -1 
3 -1 -1 
3 -1 -1 
3 -1 -1 
3 -1 -1 
3 -1 -1 
3 -1 -1 
3 -1 -1 
3 -1 -1 
3 -1 -1 
3 -1 -1 
3 -1 -1 
3 -1 -1 
3 -1 -1 
3 -1 -1 
3 -1 -1 
3 -1 -1 
3 -1 -1 
MARKER_TAG= top
MARKER_ELEMS= 167
3 -1 -1 
3 -1 -1 
3 -1 -1 
3 -1 -1 
3 -1 -1 
3 -1 -1 
3 -1 -1 
3 -1 -1 
3 -1 -1 
3 -1 -1 
3 -1 -1 
3 -1 -1 
3 -1 -1 
3 -1 -1 
3 -1 -1 
3 -1 -1 
3 -1 -1 
3 -1 -1 
3 -1 -1 
3 -1 -1 
3 -1 -1 
3 -1 -1 
3 -1 -1 
3 -1 -1 
3 -1 -1 
3 -1 -1 
3 -1 -1 
3 -1 -1 
3 -1 -1 
3 -1 -1 
3 -1 -1 
3 -1 -1 
3 -1 -1 
3 -1 -1 
3 -1 -1 
3 -1 -1 
3 -1 -1 
3 -1 -1 
3 -1 -1 
3 -1 -1 
3 -1 -1 
3 -1 -1 
3 -1 -1 
3 -1 -1 
3 -1 -1 
3 -1 -1 
3 -1 -1 
3 -1 -1 
3 -1 -1 
3 -1 -1 
3 -1 -1 
3 -1 -1 
3 -1 -1 
3 -1 -1 
3 -1 -1 
3 -1 -1 
3 -1 -1 
3 -1 -1 
3 -1 -1 
3 -1 -1 
3 -1 -1 
3 -1 -1 
3 -1 -1 
3 -1 -1 
3 -1 -1 
3 -1 -1 
3 -1 -1 
3 -1 -1 
3 -1 -1 
3 -1 -1 
3 -1 -1 
3 -1 -1 
3 -1 -1 
3 -1 -1 
3 -1 -1 
3 -1 -1 
3 -1 -1 
3 -1 -1 
3 -1 -1 
3 -1 -1 
3 -1 -1 
3 -1 -1 
3 -1 -1 
3 -1 -1 
3 -1 -1 
3 -1 -1 
3 -1 -1 
3 -1 -1 
3 -1 -1 
3 -1 -1 
3 -1 -1 
3 -1 -1 
3 -1 -1 
3 -1 -1 
3 -1 -1 
3 -1 -1 
3 -1 -1 
3 -1 -1 
3 -1 -1 
3 -1 -1 
3 -1 -1 
3 -1 -1 
3 -1 -1 
3 -1 -1 
3 -1 -1 
3 -1 -1 
3 -1 -1 
3 -1 -1 
3 -1 -1 
3 -1 -1 
3 -1 -1 
3 -1 -1 
3 -1 -1 
3 -1 -1 
3 -1 -1 
3 -1 -1 
3 -1 -1 
3 -1 -1 
3 -1 -1 
3 -1 -1 
3 -1 -1 
3 -1 -1 
3 -1 -1 
3 -1 -1 
3 -1 -1 
3 -1 -1 
3 -1 -1 
3 -1 -1 
3 -1 -1 
3 -1 -1 
3 -1 -1 
3 -1 -1 
3 -1 -1 
3 -1 -1 
3 -1 -1 
3 -1 -1 
3 -1 -1 
3 -1 -1 
3 -1 -1 
3 -1 -1 
3 -1 -1 
3 -1 -1 
3 -1 -1 
3 -1 -1 
3 -1 -1 
3 -1 -1 
3 -1 -1 
3 -1 -1 
3 -1 -1 
3 -1 -1 
3 -1 -1 
3 -1 -1 
3 -1 -1 
3 -1 -1 
3 -1 -1 
3 -1 -1 
3 -1 -1 
3 -1 -1 
3 -1 -1 
3 -1 -1 
3 -1 -1 
3 -1 -1 
3 -1 -1 
3 -1 -1 
3 -1 -1 
3 -1 -1 
3 -1 -1 
